<?xml version="1.0" standalone="no"?>
<!DOCTYPE svg PUBLIC "-//W3C//DTD SVG 20010904//EN"
 "http://www.w3.org/TR/2001/REC-SVG-20010904/DTD/svg10.dtd">
<svg version="1.0" xmlns="http://www.w3.org/2000/svg"
 width="3840.000000pt" height="2160.000000pt" viewBox="0 0 3840.000000 2160.000000"
 preserveAspectRatio="xMidYMid meet">

<g transform="translate(0.000000,2160.000000) scale(0.100000,-0.100000)"
fill="#000000" stroke="none">
<path d="M0 10800 l0 -10800 5942 0 c3388 0 5938 4 5932 9 -5 5 -43 37 -84 72
-163 137 -623 562 -689 636 -108 121 -147 232 -241 683 -18 85 -57 236 -86
335 -30 99 -71 244 -90 324 -33 129 -36 154 -32 238 5 82 10 103 41 166 23 46
58 94 95 132 l60 60 -80 130 c-112 181 -171 276 -280 455 -52 85 -164 268
-248 405 -265 431 -405 694 -445 831 -70 242 11 355 286 396 70 11 79 10 121
-11 64 -31 159 -144 516 -616 298 -394 686 -873 708 -874 7 -1 36 15 65 35
117 79 238 124 335 124 62 0 217 -43 331 -92 l103 -44 77 14 c52 9 119 12 198
9 123 -5 225 -30 523 -125 l87 -28 195 14 c172 13 205 13 280 0 47 -9 107 -26
134 -39 106 -50 221 -190 290 -356 14 -34 55 -167 91 -295 295 -1045 314
-1110 356 -1216 50 -126 125 -262 184 -337 31 -38 54 -75 53 -82 -2 -7 -172
-185 -378 -395 -207 -211 -413 -422 -459 -470 l-84 -88 12297 0 12296 0 0
10800 0 10800 -1939 0 -1940 0 5 -37 c3 -21 7 -50 9 -65 7 -44 -10 -33 -54 37
l-40 65 -639 0 -638 0 -1235 -821 c-679 -452 -1298 -864 -1377 -917 -78 -52
-144 -93 -146 -91 -3 2 -10 51 -17 109 -6 58 -15 109 -19 113 -4 4 -54 -27
-111 -70 -101 -76 -105 -81 -162 -183 -70 -127 -170 -280 -200 -308 -12 -11
-240 -165 -507 -342 -267 -178 -487 -324 -489 -326 -2 -2 1 -15 7 -29 l12 -25
-68 0 c-175 0 -296 93 -309 237 -10 111 48 258 147 373 85 99 172 224 203 290
16 36 49 108 72 160 23 52 161 354 305 670 144 316 291 640 327 720 35 80 69
155 76 168 13 28 135 181 185 235 l36 37 -14947 0 -14947 0 0 -10800z m34271
9569 c601 -900 795 -1197 786 -1205 -11 -10 -1350 -905 -3221 -2153 -406 -271
-742 -489 -746 -484 -17 19 -1590 2383 -1590 2390 0 5 502 343 1116 753 614
410 1503 1005 1977 1322 474 317 866 576 871 574 6 -1 369 -540 807 -1197z
m773 -1584 c60 -224 52 -271 -61 -384 -119 -117 -241 -164 -365 -138 l-63 13
0 -96 c0 -87 -2 -100 -30 -149 -34 -61 -81 -100 -170 -141 -148 -67 -275 -100
-386 -100 l-84 0 -42 -83 c-108 -211 -208 -324 -350 -394 -84 -42 -102 -47
-179 -51 -50 -3 -110 1 -142 8 l-55 12 -25 -33 c-84 -112 -221 -205 -343 -234
-79 -18 -219 -19 -321 -1 -80 15 -201 63 -196 78 4 11 2750 1838 2763 1838 6
0 27 -65 49 -145z m-6989 -1405 c116 -5 480 -21 809 -35 330 -14 601 -27 603
-29 2 -2 -49 -111 -113 -242 -183 -377 -585 -1202 -621 -1274 l-32 -65 -1 55
c0 30 14 273 30 540 16 267 30 513 30 546 l0 62 -42 17 c-62 24 -785 332 -835
356 -24 10 -72 31 -108 45 -36 14 -65 28 -65 30 0 7 123 4 345 -6z m-2690
-334 c61 -19 202 -63 315 -99 113 -36 351 -111 530 -167 638 -200 673 -211
684 -220 4 -5 -36 -59 -90 -122 -55 -62 -164 -187 -243 -278 -78 -91 -169
-194 -200 -230 -32 -36 -176 -202 -321 -370 -295 -340 -290 -334 -290 -324 0
5 84 259 186 567 102 307 184 562 182 566 -2 5 -194 158 -428 341 -234 183
-436 343 -450 357 -29 29 -40 31 125 -21z m-2800 -708 c138 -44 284 -90 325
-102 41 -13 161 -51 265 -84 105 -33 315 -99 468 -147 154 -47 290 -90 304
-96 l25 -9 -30 -38 c-17 -20 -83 -98 -148 -173 -66 -74 -144 -164 -174 -199
-30 -35 -103 -118 -161 -184 -58 -67 -226 -260 -372 -429 -147 -169 -267 -303
-267 -296 0 6 84 263 186 571 102 307 184 561 182 562 -1 1 -138 108 -303 237
-165 129 -366 286 -447 349 -81 63 -147 119 -148 123 0 5 10 5 23 1 12 -4 135
-43 272 -86z m-8424 -218 c45 -107 99 -238 121 -290 22 -52 58 -138 80 -190
22 -52 62 -147 88 -210 26 -63 100 -241 165 -395 65 -154 139 -332 165 -395
26 -63 102 -243 168 -400 213 -507 312 -746 312 -756 0 -11 -65 -39 -795 -343
-250 -105 -306 -128 -570 -239 -250 -105 -566 -237 -905 -379 -285 -119 -368
-154 -605 -253 -133 -55 -708 -296 -955 -400 -108 -46 -883 -370 -1163 -486
-70 -30 -142 -60 -160 -68 -18 -8 -194 -82 -392 -164 -198 -83 -447 -186 -553
-231 -106 -45 -196 -81 -201 -81 -5 0 -33 57 -62 128 -76 185 -93 224 -239
572 -218 520 -355 847 -500 1195 -164 393 -305 728 -354 845 -20 46 -36 90
-36 97 0 14 -5 12 255 120 99 41 194 81 210 88 17 8 59 26 95 40 36 15 79 33
95 40 17 8 98 41 180 75 83 34 218 91 300 125 497 209 857 360 905 380 170 70
564 234 915 382 72 30 168 71 215 90 47 19 99 41 115 48 17 8 86 37 155 65 69
28 177 73 240 100 181 77 494 208 620 260 63 26 158 66 210 88 214 90 305 128
745 311 253 106 474 198 490 205 17 8 140 60 275 116 135 56 252 106 260 110
8 5 18 6 22 2 4 -4 44 -95 89 -202z m2216 -127 c213 -135 429 -272 478 -303
218 -137 601 -383 608 -389 4 -5 -84 -71 -198 -147 -581 -393 -1226 -828
-1244 -839 -10 -6 -12 -4 -6 6 17 27 173 266 376 574 283 429 273 413 263 434
-5 9 -159 216 -341 459 -183 243 -333 444 -333 447 0 3 2 5 4 5 2 0 179 -111
393 -247z m2986 7 c765 -484 1141 -726 1143 -735 2 -5 -29 -32 -69 -59 -40
-26 -202 -136 -362 -244 -451 -304 -801 -540 -909 -614 -55 -37 -101 -66 -104
-64 -2 2 81 132 184 288 363 550 466 708 462 716 -4 8 -655 879 -676 905 -8 9
-12 17 -8 17 4 0 157 -94 339 -210z m-12146 -5062 c28 -83 315 -915 442 -1287
56 -162 99 -296 97 -298 -2 -2 -37 34 -78 79 -94 106 -474 533 -509 573 -118
135 -203 225 -213 225 -6 0 -90 -32 -186 -71 -491 -199 -872 -350 -876 -346
-4 3 317 301 690 641 72 65 183 167 246 226 301 279 346 319 355 320 6 0 20
-28 32 -62z m-1992 -2939 c51 -19 165 -108 165 -129 0 -5 -9 -12 -20 -15 -11
-3 -20 -12 -20 -18 -1 -7 45 -268 102 -580 l102 -568 -18 -87 c-10 -48 -36
-145 -57 -217 -42 -140 -47 -194 -28 -318 6 -40 13 -78 15 -85 2 -8 35 11 90
53 76 57 104 73 104 62 0 -2 34 -192 75 -423 42 -230 83 -457 91 -504 25 -143
113 -626 144 -795 16 -88 59 -324 95 -525 36 -201 90 -502 121 -670 51 -288
93 -522 184 -1034 22 -120 41 -220 43 -222 2 -2 66 8 143 22 76 14 254 45 394
70 140 25 263 47 273 50 35 11 15 -14 -59 -72 -42 -32 -109 -84 -148 -115
-169 -132 -824 -564 -951 -626 -40 -20 -60 -25 -70 -18 -8 6 -474 746 -1036
1645 -562 899 -1027 1643 -1032 1652 -9 14 -6 21 15 38 30 23 28 9 53 355 32
426 55 614 86 682 10 23 88 216 173 430 85 213 233 587 329 829 97 243 183
468 191 500 8 33 24 124 34 204 22 157 45 236 91 309 83 130 193 170 326 120z
m3190 -236 c4 -27 72 -412 151 -858 79 -445 158 -886 174 -980 17 -93 107
-600 201 -1125 94 -525 195 -1090 224 -1255 29 -165 50 -303 47 -306 -4 -4
-137 -30 -297 -58 -277 -50 -393 -71 -890 -160 -121 -22 -422 -76 -670 -121
-247 -44 -538 -96 -645 -115 -255 -46 -260 -47 -260 -41 0 3 -9 51 -20 108
-10 57 -44 245 -74 418 -30 173 -71 405 -91 515 -20 110 -51 288 -70 395 -33
190 -256 1437 -335 1875 -159 886 -223 1256 -216 1262 3 3 128 27 278 54 150
27 361 65 468 84 107 19 310 55 450 80 331 57 911 161 1020 181 330 61 508 92
526 93 18 1 23 -6 29 -46z m449 -1167 c131 -64 268 -199 325 -320 44 -94 54
-154 49 -287 -5 -110 -4 -119 14 -125 30 -9 134 -111 162 -158 43 -74 76 -187
76 -263 0 -79 -37 -265 -74 -372 l-26 -74 49 -52 c115 -122 222 -351 224 -481
1 -81 -28 -139 -104 -207 -32 -30 -59 -56 -59 -59 0 -3 14 -11 30 -18 45 -19
116 -103 141 -168 16 -42 23 -87 27 -169 4 -107 3 -116 -22 -167 -21 -43 -40
-64 -86 -95 -70 -46 -247 -138 -253 -131 -3 3 -26 122 -52 265 -25 143 -70
393 -100 555 -224 1234 -401 2216 -420 2328 -7 42 7 42 99 -2z"/>
<path d="M11080 14599 c-74 -33 -73 -29 -24 -141 24 -55 44 -104 44 -107 0 -3
-17 -17 -38 -31 -58 -38 -144 -130 -174 -186 -37 -68 -52 -168 -38 -246 6 -33
15 -68 20 -77 5 -9 18 -34 28 -56 58 -127 151 -199 286 -224 33 -6 164 -11
292 -11 310 0 358 -16 419 -136 40 -80 46 -170 15 -242 -55 -129 -251 -238
-500 -280 l-105 -18 2 -60 c1 -32 7 -78 14 -101 l12 -43 41 6 c143 19 295 62
386 109 28 14 30 14 44 -7 7 -13 31 -65 52 -116 l39 -93 35 6 c28 5 67 24 108
50 2 2 -53 131 -93 219 -13 28 -11 56 5 56 15 0 103 85 142 138 104 141 115
309 33 490 -52 112 -147 194 -270 232 -25 8 -147 15 -325 19 -267 6 -288 8
-327 29 -80 42 -123 119 -123 219 0 147 190 265 511 317 l35 6 -7 68 c-4 37
-12 80 -18 95 -11 27 -13 28 -58 21 -42 -6 -171 -40 -271 -72 -28 -9 -34 -8
-39 6 -25 69 -84 182 -95 181 -7 0 -33 -9 -58 -20z"/>
</g>
</svg>
